<svg aria-hidden="true" version="1.1" xmlns="http://www.w3.org/2000/svg" xmlns:xlink="http://www.w3.org/1999/xlink">
<defs>
<symbol id="icon-goo" viewBox="0 0 32 32">
<path d="M18.452 14.636c3.58 0 6.493-2.913 6.493-6.493 0-0.065-0.001-0.13-0.003-0.194-0.008-0.259-0.221-0.462-0.482-0.454-0.259 0.008-0.462 0.223-0.454 0.482 0.002 0.055 0.002 0.111 0.002 0.166 0 3.064-2.492 5.556-5.556 5.556s-5.556-2.492-5.556-5.556 2.492-5.556 5.556-5.556c2.256 0 4.272 1.347 5.135 3.431 0.099 0.239 0.373 0.352 0.612 0.253s0.352-0.373 0.253-0.612c-1.009-2.436-3.365-4.009-6.001-4.009-3.58 0-6.493 2.913-6.493 6.493s2.913 6.493 6.493 6.493z"></path>
<path d="M18.449 4.809c-0.259 0-0.468 0.21-0.468 0.468v1.735c0 0.649 0.528 1.177 1.177 1.177s1.177-0.528 1.177-1.177v-0.138c0-0.259-0.21-0.468-0.468-0.468s-0.468 0.21-0.468 0.468v0.138c0 0.132-0.108 0.24-0.24 0.24s-0.24-0.108-0.24-0.24v-1.735c0-0.259-0.21-0.468-0.468-0.468z"></path>
<path d="M15.529 7.664c-0.259 0-0.469 0.21-0.469 0.468v0.138c0 0.649 0.528 1.177 1.177 1.177s1.177-0.528 1.177-1.177v-2.993c0-0.259-0.21-0.468-0.468-0.468s-0.468 0.21-0.468 0.468v2.993c0 0.132-0.108 0.24-0.24 0.24s-0.24-0.108-0.24-0.24v-0.138c0-0.259-0.21-0.468-0.468-0.468z"></path>
<path d="M19.771 11.465c0.070 0.009 0.141 0.013 0.212 0.013 0.406 0 0.822-0.136 1.125-0.375 0.655-0.517 0.91-1.462 0.606-2.247-0.093-0.241-0.364-0.361-0.606-0.268s-0.361 0.365-0.268 0.606c0.157 0.405 0.022 0.909-0.313 1.174-0.162 0.128-0.42 0.195-0.643 0.168-0.099-0.012-0.235-0.049-0.316-0.154-0.159-0.205-0.453-0.242-0.657-0.084s-0.242 0.453-0.084 0.657c0.218 0.281 0.553 0.463 0.943 0.51z"></path>
<path d="M17.932 9.54c0.129 0.224 0.416 0.301 0.64 0.171s0.301-0.416 0.172-0.64c-0.129-0.224-0.416-0.301-0.64-0.171s-0.301 0.416-0.172 0.64z"></path>
<path d="M19.744 8.9c-0.224 0.129-0.301 0.416-0.172 0.64s0.416 0.301 0.64 0.171 0.301-0.416 0.172-0.64-0.416-0.301-0.64-0.171z"></path>
<path d="M6.655 3.898c1.6 0.711 1.835 2.21 1.844 2.271 0.031 0.232 0.23 0.406 0.464 0.406s0.433-0.174 0.464-0.406c0.002-0.015 0.226-1.552 1.844-2.271 0.169-0.075 0.278-0.243 0.278-0.428s-0.109-0.353-0.278-0.428c-1.6-0.711-1.835-2.21-1.844-2.271-0.031-0.233-0.23-0.406-0.464-0.406s-0.433 0.173-0.464 0.406c-0.002 0.015-0.226 1.552-1.844 2.271-0.169 0.075-0.278 0.243-0.278 0.428s0.109 0.353 0.278 0.428zM8.963 2.166c0.246 0.433 0.617 0.906 1.174 1.303-0.557 0.397-0.928 0.871-1.174 1.303-0.246-0.433-0.617-0.906-1.174-1.303 0.557-0.397 0.928-0.871 1.174-1.303z"></path>
<path d="M31.807 19.819c-0.459-1.009-1.631-1.494-2.668-1.103-0.005 0.002-1.212 0.499-1.212 0.499 0.036-0.302-0.002-0.61-0.118-0.9-0.354-0.883-1.342-1.354-2.251-1.072-0.009 0.003-6.075 2.291-6.075 2.291-0.052-0.354-0.194-0.693-0.419-0.981-0.61-0.783-1.698-1.029-2.586-0.585l-4.9 2.45-1.852-0.418c-0.012-0.003-0.024-0.005-0.037-0.007-1.744-0.249-3.244 0.737-4.017 1.383v-1.397c0-0.483-0.393-0.877-0.877-0.877h-3.919c-0.483-0-0.877 0.393-0.877 0.876v10.78c0 0.483 0.393 0.877 0.877 0.877h3.919c0.483 0 0.877-0.393 0.877-0.877v-0.693h1.99c1.020 0 2.068 0.236 3.082 0.465 1.058 0.239 2.137 0.482 3.236 0.482 0.828 0 1.668-0.138 2.519-0.52 1.064-0.478 4.438-2.389 7.702-4.237 2.876-1.629 5.592-3.168 6.607-3.661 1.038-0.505 1.477-1.724 1-2.775zM19.37 20.578l6.478-2.444c0.442-0.13 0.919 0.1 1.091 0.529 0.090 0.226 0.087 0.473-0.011 0.695-0.083 0.19-0.225 0.341-0.406 0.436l-6.721 2.771c-0.312 0.117-0.639 0.176-0.973 0.176h-2.207l1.859-1.104c0.411-0.244 0.722-0.619 0.888-1.059zM30.398 21.752c-1.041 0.506-3.77 2.052-6.659 3.688-3.245 1.838-6.6 3.738-7.624 4.198-1.695 0.761-3.381 0.381-5.165-0.021-1.064-0.24-2.163-0.488-3.288-0.488h-1.99v-1.834c0-0.259-0.21-0.468-0.468-0.468s-0.468 0.21-0.468 0.468v3.403h-3.798v-10.659h3.798v5.044c0 0.259 0.21 0.468 0.468 0.468s0.468-0.21 0.468-0.468v-2.453c0.052-0.026 0.099-0.061 0.139-0.105 0.017-0.019 1.73-1.881 3.728-1.608l1.996 0.451c0.105 0.024 0.216 0.010 0.313-0.038l5.050-2.525c0.49-0.245 1.091-0.109 1.428 0.323 0.204 0.262 0.285 0.598 0.224 0.924s-0.26 0.61-0.545 0.779l-5.695 3.381c-0.223 0.132-0.296 0.42-0.164 0.642s0.42 0.296 0.642 0.164l2.258-1.341h3.785c0.449 0 0.889-0.080 1.309-0.238 0.005-0.002 0.009-0.003 0.014-0.005l9.323-3.844c0.576-0.213 1.225 0.057 1.479 0.616 0.266 0.585 0.022 1.263-0.556 1.544z"></path>
<path d="M25.595 13.749c1.903 0.846 2.18 2.63 2.191 2.703 0.031 0.233 0.23 0.406 0.464 0.406s0.433-0.174 0.464-0.406c0.003-0.018 0.27-1.849 2.191-2.703 0.169-0.075 0.278-0.243 0.278-0.428s-0.109-0.353-0.278-0.428c-1.903-0.846-2.18-2.63-2.191-2.703-0.031-0.232-0.23-0.406-0.464-0.406s-0.433 0.174-0.464 0.406c-0.003 0.018-0.27 1.849-2.191 2.703-0.169 0.075-0.278 0.243-0.278 0.428s0.109 0.353 0.278 0.428zM28.25 11.646c0.291 0.548 0.758 1.172 1.501 1.675-0.743 0.503-1.209 1.126-1.501 1.675-0.291-0.548-0.758-1.171-1.501-1.675 0.743-0.504 1.209-1.127 1.501-1.675z"></path>
</symbol>
<symbol id="icon-helping-hand" viewBox="0 0 32 32">
<path d="M31.698 26.25l-2.076-2.076c-0.183-0.183-0.48-0.183-0.663 0s-0.183 0.48 0 0.663l2.076 2.076c0.091 0.091 0.212 0.137 0.331 0.137s0.24-0.046 0.331-0.137c0.183-0.183 0.183-0.48 0-0.663z"></path>
<path d="M11.932 20.735c0 0.259 0.21 0.469 0.469 0.469s0.469-0.21 0.469-0.469v-0.723c0.691-0.263 1.183-0.932 1.183-1.714 0-0.845-0.575-1.558-1.354-1.77 0.172-0.279 0.272-0.608 0.272-0.96 0-1.009-0.819-1.83-1.827-1.834 0.149-0.265 0.235-0.571 0.235-0.896 0-1.011-0.823-1.834-1.834-1.834h-0.902c0.149-0.265 0.235-0.571 0.235-0.896 0-1.011-0.823-1.834-1.834-1.834h-0.023c-0.259 0-0.469 0.21-0.469 0.469s0.21 0.469 0.469 0.469h0.023c0.494 0 0.896 0.402 0.896 0.896s-0.402 0.896-0.896 0.896h-2.145c-0.494 0-0.896-0.402-0.896-0.896 0-0.46 0.358-0.851 0.815-0.892 0.258-0.023 0.448-0.251 0.425-0.509s-0.251-0.448-0.509-0.425c-0.247 0.022-0.477 0.091-0.684 0.198l-3.085-3.085c-0.183-0.183-0.48-0.183-0.663 0s-0.183 0.48 0 0.663l3.054 3.054c-0.184 0.287-0.291 0.629-0.291 0.996 0 1.011 0.823 1.834 1.834 1.834h0.232c-0.149 0.265-0.235 0.571-0.235 0.896 0 1.011 0.823 1.834 1.834 1.834h0.026c-0.149 0.265-0.235 0.571-0.235 0.896 0 1.011 0.823 1.834 1.834 1.834h0.6c-0.149 0.265-0.235 0.571-0.235 0.896 0 1.011 0.823 1.834 1.834 1.834h1.38v0.603zM5.833 12.838c0-0.494 0.402-0.896 0.896-0.896h2.815c0.494 0 0.896 0.402 0.896 0.896s-0.402 0.896-0.896 0.896h-2.816c-0.494 0-0.896-0.402-0.896-0.896zM7.457 15.568c0-0.494 0.402-0.896 0.896-0.896h2.783c0.494 0 0.896 0.402 0.896 0.896s-0.402 0.896-0.896 0.896h-2.783c-0.494 0-0.896-0.402-0.896-0.896zM9.656 18.298c0-0.494 0.402-0.896 0.896-0.896h1.666c0.494 0 0.896 0.402 0.896 0.896s-0.402 0.896-0.896 0.896h-1.666c-0.494-0-0.896-0.402-0.896-0.896z"></path>
<path d="M28.833 19.675c0.004-0.565-0.214-1.096-0.613-1.496l-2.718-2.718c-0.488-0.488-1.089-0.872-1.738-1.108l-3.662-1.336-1.336-3.661c-0.237-0.649-0.62-1.25-1.108-1.738l-2.259-2.259c-0.817-0.817-2.146-0.817-2.962 0-0.231 0.231-0.4 0.51-0.502 0.811l-5.702-6.022c-0.178-0.188-0.475-0.196-0.663-0.018s-0.196 0.475-0.018 0.663l11.375 12.011c0.050 0.053 0.111 0.093 0.18 0.118l6.337 2.312c0.521 0.19 1.004 0.498 1.397 0.891l2.718 2.718c0.221 0.221 0.341 0.514 0.339 0.826s-0.127 0.604-0.351 0.821c-0.451 0.438-1.18 0.432-1.625-0.013l-2.268-2.272c-0.134-0.134-0.336-0.175-0.511-0.102s-0.29 0.244-0.29 0.433v8.040c0 0.494-0.402 0.896-0.896 0.896s-0.896-0.402-0.896-0.896v-2.829c0-0.259-0.21-0.469-0.469-0.469s-0.469 0.21-0.469 0.469v2.098c0 0.245-0.097 0.474-0.274 0.645s-0.409 0.259-0.655 0.251c-0.476-0.017-0.863-0.433-0.863-0.928v-3.003c0-0.259-0.21-0.469-0.469-0.469s-0.469 0.21-0.469 0.469v2.303c0 0.494-0.402 0.896-0.896 0.896s-0.896-0.402-0.896-0.896v-2.981c0-0.259-0.21-0.469-0.469-0.469s-0.469 0.21-0.469 0.469v1.514c0 0.245-0.097 0.474-0.274 0.645s-0.41 0.259-0.655 0.251c-0.476-0.017-0.863-0.433-0.863-0.928v-0.632c0-0.259-0.21-0.469-0.469-0.469s-0.469 0.21-0.469 0.469v0.632c0 0.994 0.793 1.831 1.767 1.865 0.345 0.012 0.676-0.069 0.967-0.234 0.067 0.95 0.862 1.703 1.829 1.703 0.4 0 0.77-0.128 1.071-0.346 0.286 0.614 0.892 1.053 1.592 1.078 0.41 0.015 0.803-0.104 1.13-0.338 0.29 0.631 0.928 1.070 1.667 1.070 0.209 0 0.41-0.036 0.597-0.1l3.553 3.553c0.091 0.091 0.212 0.137 0.331 0.137s0.24-0.046 0.331-0.137c0.183-0.183 0.183-0.48 0-0.663l-3.426-3.426c0.278-0.322 0.447-0.74 0.447-1.198v-6.907l3.582 3.58c0.091 0.091 0.212 0.137 0.331 0.137s0.24-0.046 0.331-0.137c0.183-0.183 0.183-0.48 0-0.663l-0.878-0.878c0.381-0.076 0.744-0.258 1.041-0.546 0.406-0.394 0.631-0.922 0.635-1.487zM12.778 7.041c-0.066-0.372 0.054-0.754 0.321-1.021 0.451-0.451 1.185-0.451 1.636 0l2.259 2.259c0.392 0.392 0.7 0.875 0.891 1.397l1.065 2.92-1.421-0.518c-0-0-4.751-5.029-4.752-5.036z"></path>
</symbol>
<symbol id="icon-big-dollar-coin" viewBox="0 0 32 32">
<path d="M22.294 1.286c-0.249-0.107-0.537 0.009-0.643 0.258s0.009 0.537 0.258 0.643c5.535 2.371 9.112 7.793 9.112 13.813 0 8.282-6.738 15.020-15.020 15.020s-15.020-6.738-15.020-15.020c0-8.282 6.738-15.020 15.020-15.020 1.505 0 2.991 0.222 4.416 0.66 0.259 0.079 0.533-0.066 0.612-0.325s-0.066-0.533-0.325-0.612c-1.518-0.466-3.101-0.703-4.704-0.703-8.822 0-16 7.178-16 16s7.178 16 16 16c8.822 0 16-7.178 16-16 0-6.413-3.81-12.189-9.706-14.714z"></path>
<path d="M25.881 8.984c0.103 0 0.208-0.033 0.296-0.1 0.215-0.164 0.257-0.471 0.093-0.687-0.199-0.262-0.411-0.519-0.63-0.766-0.18-0.202-0.49-0.22-0.692-0.041s-0.22 0.49-0.041 0.692c0.202 0.228 0.398 0.466 0.582 0.708 0.097 0.127 0.243 0.193 0.39 0.193z"></path>
<path d="M16 27.918c-2.497 0-4.887-0.764-6.912-2.208-0.22-0.157-0.526-0.106-0.684 0.114s-0.106 0.526 0.114 0.684c2.192 1.564 4.78 2.39 7.481 2.39 7.112 0 12.898-5.786 12.898-12.898 0-2.242-0.584-4.451-1.69-6.387-0.134-0.235-0.434-0.317-0.669-0.182s-0.317 0.434-0.183 0.669c1.021 1.788 1.561 3.829 1.561 5.901-0 6.572-5.346 11.918-11.918 11.918z"></path>
<path d="M6.775 24.312c-0.194 0.189-0.198 0.499-0.009 0.693 0.16 0.164 0.327 0.326 0.495 0.481 0.094 0.087 0.213 0.13 0.332 0.13 0.132 0 0.264-0.053 0.361-0.158 0.183-0.199 0.171-0.509-0.028-0.692-0.156-0.144-0.31-0.293-0.458-0.445-0.189-0.194-0.499-0.198-0.693-0.009z"></path>
<path d="M16 3.102c-7.112 0-12.898 5.786-12.898 12.898 0 2.67 0.809 5.232 2.339 7.408 0.095 0.136 0.247 0.208 0.401 0.208 0.097 0 0.196-0.029 0.281-0.089 0.221-0.156 0.275-0.461 0.119-0.683-1.413-2.011-2.16-4.378-2.16-6.845 0-6.572 5.346-11.918 11.918-11.918 2.933 0 5.752 1.075 7.937 3.027 0.202 0.18 0.512 0.163 0.692-0.039s0.163-0.512-0.039-0.692c-2.365-2.113-5.416-3.276-8.59-3.276z"></path>
<path d="M16.401 21.077c-0.039-0.216-0.228-0.378-0.452-0.378-0.223 0-0.412 0.162-0.452 0.376-1.167-0.137-2.48-0.869-2.766-2.025-0.001-0.003-0.006-0.029-0.025-0.158-0.034-0.24-0.238-0.421-0.476-0.421-0.133 0.003-0.259 0.061-0.346 0.161s-0.128 0.233-0.112 0.364c0.017 0.141 0.023 0.181 0.027 0.201 0.151 0.803 0.634 1.498 1.396 2.008 0.645 0.432 1.458 0.711 2.294 0.79v0.582c0 0.241 0.181 0.448 0.412 0.472 0.016 0.002 0.031 0.002 0.047 0.002 0.143 0 0.276-0.065 0.364-0.179 0.061-0.079 0.095-0.184 0.095-0.296v-0.581c0.964-0.094 1.908-0.463 2.597-1.015 0.802-0.643 1.225-1.483 1.225-2.429 0-0.222-0.026-0.439-0.088-0.726-0.428-1.944-2.252-2.159-3.735-2.319v-4.683c0.807 0.076 1.567 0.408 2.040 0.893 0.261 0.289 0.439 0.641 0.527 1.042 0.026 0.228 0.219 0.399 0.448 0.399 0.028 0 0.057-0.003 0.085-0.008l0.020-0.004c0.23-0.044 0.386-0.252 0.365-0.486l-0.006-0.058c-0.153-0.799-0.607-1.478-1.312-1.962-0.6-0.412-1.367-0.673-2.165-0.736v-0.48c0-0.241-0.181-0.448-0.412-0.472-0.274-0.028-0.506 0.188-0.506 0.457v0.499c-0.489 0.045-0.962 0.158-1.406 0.334-0.11 0.044-0.199 0.121-0.25 0.218-0.071 0.133-0.075 0.284-0.011 0.414 0.077 0.157 0.234 0.255 0.407 0.255 0.057 0 0.113-0.011 0.166-0.032 0.337-0.134 0.705-0.223 1.094-0.266v4.595c-1.289-0.163-2.544-0.462-2.695-1.975-0.021-0.381 0.018-0.929 0.323-1.377 0.008-0.011 0.028-0.038 0.056-0.073 0.155-0.194 0.129-0.473-0.059-0.635-0.083-0.072-0.19-0.111-0.299-0.111-0.141 0-0.273 0.063-0.36 0.174-0.023 0.028-0.077 0.097-0.094 0.124-0.368 0.563-0.549 1.278-0.498 1.962 0.109 0.971 0.532 1.672 1.293 2.143 0.728 0.451 1.671 0.611 2.333 0.691v3.324c0 0.244 0.182 0.453 0.413 0.475 0.273 0.027 0.505-0.189 0.505-0.457v-3.247c1.342 0.147 2.56 0.389 2.831 1.59 0.039 0.167 0.057 0.337 0.057 0.518-0 1.546-1.492 2.389-2.896 2.526z"></path>
</symbol>
<symbol id="icon-settings" viewBox="0 0 32 32">
<path d="M31.526 13.465l-2.597-0.647c-0.321-1.31-0.837-2.555-1.537-3.71l1.379-2.294c0.148-0.246 0.109-0.561-0.094-0.764l-2.728-2.728c-0.203-0.203-0.518-0.242-0.764-0.094l-2.294 1.379c-1.155-0.701-2.4-1.216-3.71-1.537l-0.647-2.597c-0.069-0.279-0.32-0.474-0.606-0.474h-3.857c-0.287 0-0.537 0.195-0.607 0.474l-0.647 2.597c-1.31 0.321-2.555 0.837-3.71 1.537l-2.294-1.379c-0.246-0.148-0.561-0.109-0.764 0.094l-2.728 2.727c-0.203 0.203-0.242 0.518-0.094 0.764l1.379 2.294c-0.701 1.155-1.216 2.4-1.537 3.71l-2.597 0.647c-0.279 0.069-0.474 0.319-0.474 0.606v3.857c0 0.287 0.195 0.537 0.474 0.607l2.597 0.647c0.321 1.31 0.837 2.555 1.537 3.71l-1.379 2.294c-0.148 0.246-0.109 0.561 0.094 0.764l2.728 2.728c0.203 0.203 0.518 0.242 0.764 0.094l2.294-1.379c1.155 0.701 2.4 1.216 3.71 1.537l0.647 2.597c0.069 0.279 0.319 0.474 0.607 0.474h3.857c0.287 0 0.537-0.195 0.607-0.474l0.647-2.597c1.31-0.321 2.555-0.837 3.71-1.537l2.294 1.379c0.246 0.148 0.561 0.109 0.764-0.094l2.728-2.728c0.203-0.203 0.242-0.518 0.094-0.764l-1.379-2.294c0.701-1.155 1.216-2.4 1.537-3.71l2.597-0.647c0.279-0.069 0.474-0.32 0.474-0.607v-3.857c-0-0.287-0.196-0.537-0.474-0.606zM30.75 17.44l-2.496 0.622c-0.232 0.058-0.41 0.242-0.46 0.476-0.306 1.43-0.865 2.778-1.661 4.008-0.13 0.2-0.134 0.457-0.011 0.662l1.325 2.204-2.037 2.037-2.204-1.325c-0.205-0.123-0.461-0.119-0.662 0.011-1.23 0.796-2.578 1.355-4.008 1.661-0.233 0.050-0.418 0.228-0.476 0.46l-0.622 2.496h-2.88l-0.622-2.496c-0.058-0.232-0.242-0.41-0.476-0.46-1.43-0.306-2.778-0.865-4.008-1.661-0.2-0.13-0.457-0.134-0.662-0.011l-2.204 1.325-2.037-2.037 1.325-2.204c0.123-0.204 0.119-0.461-0.011-0.662-0.796-1.23-1.355-2.578-1.661-4.008-0.050-0.233-0.228-0.418-0.46-0.476l-2.495-0.622v-2.88l2.496-0.622c0.232-0.058 0.41-0.242 0.46-0.476 0.306-1.43 0.865-2.778 1.661-4.008 0.13-0.2 0.134-0.457 0.011-0.662l-1.325-2.204 2.037-2.037 2.204 1.325c0.205 0.123 0.461 0.119 0.662-0.011 1.23-0.796 2.578-1.355 4.008-1.661 0.233-0.050 0.418-0.228 0.476-0.46l0.622-2.495h2.88l0.622 2.496c0.058 0.232 0.242 0.41 0.476 0.46 1.43 0.306 2.778 0.865 4.008 1.661 0.2 0.13 0.457 0.134 0.662 0.011l2.204-1.325 2.037 2.037-1.325 2.204c-0.123 0.204-0.119 0.461 0.011 0.662 0.796 1.23 1.355 2.578 1.661 4.008 0.050 0.233 0.228 0.418 0.46 0.476l2.496 0.622v2.88z"></path>
<path d="M16 6.625c-1.458 0-2.855 0.325-4.152 0.968-0.309 0.153-0.436 0.528-0.283 0.837s0.528 0.436 0.837 0.283c1.124-0.556 2.334-0.838 3.598-0.838 4.48 0 8.125 3.645 8.125 8.125s-3.645 8.125-8.125 8.125-8.125-3.645-8.125-8.125c0-1.456 0.39-2.885 1.127-4.131 0.176-0.297 0.077-0.68-0.22-0.856s-0.68-0.077-0.856 0.22c-0.851 1.439-1.301 3.087-1.301 4.767 0 5.169 4.206 9.375 9.375 9.375s9.375-4.206 9.375-9.375-4.206-9.375-9.375-9.375z"></path>
<path d="M16 11.5c-2.481 0-4.5 2.019-4.5 4.5s2.019 4.5 4.5 4.5 4.5-2.019 4.5-4.5-2.019-4.5-4.5-4.5zM16 19.25c-1.792 0-3.25-1.458-3.25-3.25s1.458-3.25 3.25-3.25c1.792 0 3.25 1.458 3.25 3.25s-1.458 3.25-3.25 3.25z"></path>
<path d="M10.479 9.156c-0.116-0.116-0.277-0.183-0.442-0.183s-0.326 0.067-0.442 0.183c-0.116 0.116-0.183 0.277-0.183 0.442s0.067 0.326 0.183 0.442 0.277 0.183 0.442 0.183 0.326-0.067 0.442-0.183c0.116-0.116 0.183-0.277 0.183-0.442s-0.067-0.326-0.183-0.442z"></path>
</symbol>
<symbol id="icon-filter" viewBox="0 0 32 32">
<path d="M21.563 8.403h1.043c0.382 0 0.695-0.313 0.695-0.695s-0.313-0.695-0.695-0.695h-1.043c-0.382 0-0.695 0.313-0.695 0.695s0.313 0.695 0.695 0.695z"></path>
<path d="M31.854 2.215c-0.243-0.487-0.73-0.765-1.252-0.765h-29.204c-0.521 0-1.008 0.313-1.252 0.765-0.243 0.487-0.174 1.043 0.139 1.46l12.273 15.436v10.048c0 0.521 0.278 0.973 0.73 1.217 0.209 0.104 0.417 0.174 0.661 0.174 0.278 0 0.556-0.070 0.8-0.243l3.859-2.677c0.556-0.417 0.869-1.043 0.869-1.704v-6.849l12.238-15.402c0.313-0.417 0.382-0.973 0.139-1.46zM18.225 18.416c-0.070 0.104-0.139 0.243-0.139 0.417v7.058c0 0.243-0.104 0.452-0.278 0.591l-3.859 2.677v-10.326c0-0.243-0.104-0.452-0.278-0.556l-7.857-9.874h12.62c0.382 0 0.695-0.313 0.695-0.695s-0.313-0.695-0.695-0.695h-13.559c-0.035 0-0.104 0-0.139 0l-3.338-4.172h29.204l-12.377 15.576z"></path>
</symbol>
</defs>
</svg>
