<?xml version="1.0" standalone="no"?>
<!DOCTYPE svg PUBLIC "-//W3C//DTD SVG 20010904//EN"
 "http://www.w3.org/TR/2001/REC-SVG-20010904/DTD/svg10.dtd">
<svg version="1.0" xmlns="http://www.w3.org/2000/svg"
 width="128.000000pt" height="128.000000pt" viewBox="0 0 128.000000 128.000000"
 preserveAspectRatio="xMidYMid meet">
<metadata>
Created by potrace 1.14, written by Peter Selinger 2001-2017
</metadata>
<g transform="translate(0.000000,128.000000) scale(0.100000,-0.100000)"
fill="#000000" stroke="none">
<path d="M420 1267 c-50 -16 -114 -86 -130 -141 -22 -78 7 -184 73 -270 38
-50 155 -163 218 -211 l60 -47 57 44 c135 102 247 236 287 340 45 119 -21 254
-140 287 -61 17 -103 13 -156 -14 l-49 -24 -45 23 c-51 25 -121 31 -175 13z"/>
<path d="M58 953 c-26 -6 -31 -36 -32 -178 -1 -92 3 -143 14 -175 19 -57 74
-140 139 -210 55 -59 97 -135 105 -188 4 -28 1 -35 -20 -42 -21 -9 -24 -15
-23 -67 2 -98 -13 -91 177 -89 l167 1 3 73 c2 54 -1 74 -11 77 -10 4 -13 31
-11 115 2 86 -1 122 -16 164 -34 99 -70 136 -245 252 -55 37 -58 38 -71 19
-28 -38 -18 -58 58 -120 53 -41 63 -75 24 -75 -32 0 -112 73 -140 129 -13 25
-27 69 -30 96 -23 166 -30 197 -51 210 -11 6 -28 10 -37 8z"/>
<path d="M1181 942 c-11 -10 -22 -33 -24 -52 -16 -123 -32 -209 -44 -239 -21
-50 -116 -141 -147 -141 -44 0 -32 35 27 81 28 23 56 48 60 56 12 19 1 59 -18
67 -13 5 -124 -67 -216 -139 -75 -59 -113 -173 -106 -319 4 -87 3 -95 -15 -99
-17 -5 -19 -13 -16 -79 l3 -73 172 -3 171 -2 4 64 c4 81 1 96 -22 96 -15 0
-17 6 -13 38 8 62 36 113 110 199 39 44 88 111 108 148 l37 66 2 137 c1 75 -2
151 -6 168 -10 38 -40 49 -67 26z"/>
</g>
</svg>
